# xmcd
#
# Track frame offsets: 
#        150
#        17472
#        39955
#        49170
#        60130
#        71797
#        85695
#        103602
#        125495
#        146372
#        159155
#        185432
#        198337
#
# Disc length: 2745 seconds
#
# Revision: 2
# Processed by: cddbd v1.5.2PL0 Copyright (c) Steve Scherf et al.
# Submitted via: ExactAudioCopy v0.95b4
#
DISCID=9d0ab70d
DTITLE=Joe Williams - Having the Blues Under a European Sky
DYEAR=1974
DGENRE=Blues
TTITLE0=Don't Get Around Much Anymore
TTITLE1=Satin Doll
TTITLE2=Experiment
TTITLE3=Gee Baby, Ain't I Good to You
TTITLE4=Early in the Morning
TTITLE5=Nobody Knows the Way I Feel This Morning
TTITLE6=What A Difference A Day Made
TTITLE7=Goin' To Chicago
TTITLE8=Every Day I Have the Blues
TTITLE9=All Right, OK, You Win
TTITLE10=Evenin'
TTITLE11=Roll 'em Pete
TTITLE12=One O'Clock Jump
EXTD=
EXTT0=
EXTT1=
EXTT2=
EXTT3=
EXTT4=
EXTT5=
EXTT6=Made? He sings made and it says \nmade on the label.\n
EXTT7=
EXTT8=
EXTT9=
EXTT10=
EXTT11=
EXTT12=
PLAYORDER=
